<?xml version="1.0" encoding="UTF-8" standalone="no"?><svg width="2800" height="400" viewBox="0 0 2800 400" version="1.1" xmlns="http://www.w3.org/2000/svg" xmlns:svg="http://www.w3.org/2000/svg" stroke-width="3" stroke-linejoin="round" stroke="black" fill="white"><circle fill="black" cx="200" cy="200" r="197" /><path d="m 132.8,151.5 h 135.4 v 35.4 h -40.6 v 107.3 h 40.6 v 35.4 H 132.8 v -35.4 h 40.6 V 186.9 h -40.6 z" /><circle cx="200" cy="89" r="35" /><g transform="translate(400,0)"><circle fill="black" cx="200" cy="200" r="197" /><path d="m 276.9,257.2 8.7,-57.1 h -54.6 v -37 c 0,-15.6 7.6,-30.9 32.1,-30.9 h 24.9 V 83.5 c 0,0 -22.5,-3.9 -44.1,-3.9 -45,0 -74.4,27.4 -74.4,76.9 v 43.5 h -50 v 57.1 h 50 v 138.1 c 10,1.6 20.3,2.4 30.8,2.4 10.5,0 20.7,-0.8 30.8,-2.4 V 257.2 Z" /></g><g transform="translate(800,0)"><circle fill="black" cx="200" cy="200" r="197" /><path stroke-width="5" d="M304.1 37.5h55.1l-120.45 137.7 141.7 187.3H269.5l-86.9-113.6L83.2 362.5H28l128.8-147.3L20.9 37.5H134.7l78.6 103.9zm-19.4 292h30.6L118.1 68.8H85.3z"/></g><g transform="translate(1200,0)" fill="none" stroke-width="12" stroke-linecap="round" stroke-linejoin="round"><circle cx="200" cy="200" r="192" /><path d="M 160,330 90,260 v -30 l 30,-72 v -88 L 172,140 202,130 230,140 280,70 l 2,88 28,72 V 260 L 240,330" /><path d="M240,280 240,350 200,370 160,350 160,280" /><path d="M190,330 200,336 210,330" /><line x1="160" y1="230" x2="140" y2="210" /><line x1="240" y1="230" x2="260" y2="210" /></g><g transform="translate(1600,0)" stroke-width="10" stroke-linecap="round" stroke-linejoin="round" stroke="rgb(0,51,108)"><circle stroke="black" stroke-width="15" cx="200" cy="200" r="180" fill="#006769" /><path fill="#ffc498" d="m 213,71 -71,49.5 c -18.3,17.6 -15.6,42.6 -22,64.5 8.5,30 29.7,52.4 45.2,75.5 10.5,1 18.7,-2.5 24.3,-11.1 -8.5,-18.7 -20,-34.8 -24.8,-52.5 2.3,-14.2 5.7,-26.2 13.5,-39.3 17.3,11 23.8,15.5 27.8,30 -2.2,11.1 -0.3,40.8 -4.6,60 0,6.6 16.8,11.4 22,9 2.8,-1.3 31,-90.4 26.6,-91 0,-13 13.5,-21 21.6,-27.3 8.6,-7.4 13.5,-11.5 31.7,-24.8 C 238,21.5 242,50 213,71 Z" /><path fill="none" d="m 75,300 100,0 25,50 25,-50 100,0" /><path fill="none" stroke-dasharray="10" stroke-linejoin="miter" stroke-miterlimit="2" stroke-linecap="butt" stroke="#009e07" d="m 199,270 0,53" /></g><g transform="translate(2000,0)" stroke-width="20" stroke-linecap="round" stroke-linejoin="round" stroke="rgb(110,87,168)"><polygon points=" 40,360 360,360 200,40" /><line x1="200" y1="140" x2="200" y2="260" /><circle cx="200" cy="310" r="10"  /></g><g transform="translate(2400,0)" stroke="rgb(167,163,192)" fill="none"><circle stroke-width="20" cx="200" cy="200" r="180" /><g stroke="rgb(45,45,18)" stroke-linecap="round" stroke-linejoin="round"><path stroke-width="80" d="M 330,80 180,150 270,250 80,350" /><path stroke-width="60" d="M 40,160 100,200 40,240" /></g></g></svg>