<?xml version="1.0" encoding="UTF-8" standalone="no"?><svg width="400" height="400" viewBox="0 0 400 400" version="1.1" xmlns="http://www.w3.org/2000/svg" xmlns:svg="http://www.w3.org/2000/svg" stroke-width="10" stroke-linejoin="round" stroke="rgb(110,87,168)" fill="none"><g stroke="black" fill="black" stroke-width="1"><path d="M 94,91 C 55,84 46,65 37,27 27,76 23,101 57,143 Z" /><path d="m 303,91 c 39,-7 48,-26 57,-64 10,49 14,74 -20,116 z" /></g><circle cx="200" cy="200" r="150" /><path d="m 200,50 c -109,89 -128,186 0,297" /><path d="m 200,50 c 109,89 128,186 0,297" /><path d="M 200,50 V 348" /><path d="m 89,100 c 60,13 106,36 222,0" /><path d="M 89,298 C 148,286 195,262 311,297" /><path d="M 346,192 54,193" /><g stroke="black" fill="black" stroke-width="1"><circle cx="125" cy="195" r="25" /><circle cx="275" cy="195" r="25" /></g></svg>