<?xml version="1.0" encoding="UTF-8" standalone="no"?>
<svg xmlns="http://www.w3.org/2000/svg" xmlns:xlink="http://www.w3.org/1999/xlink" xmlns:svg="http://www.w3.org/2000/svg" version="1.1" baseProfile="full" width="17000px" height="17000px" viewBox="0 0 17000 17000" preserveAspectRatio="xMidYMid meet">

<!-- 1. massenger -->
<linearGradient id="a" x1="249.87274" x2="249.87274" y1="50.226566" y2="450.02696" gradientTransform="scale(1.0005093,0.99949098)" gradientUnits="userSpaceOnUse">
<stop offset="0" stop-color="rgb(40,40,40)" />
<stop offset="1" stop-color="rgb(0,0,0)" />
</linearGradient>
<g fill="none" fill-rule="evenodd" transform="matrix(2,0,0,2,-44,-39)">
<path d="m 249,50 c -112,0 -200,82 -200,193 0,58 24,108 63,143 3,3 5,7 5,11 l 1,35 c 0,11 12,18 22,14 l 39,-17 a 16,16 0 0 1 10,-1 c 18,5 37,7 58,7 112,0 200,-82 200,-194 C 450,132 362,50 250,50 Z" fill="url(#a)" />
<path d="m 130,300 60,-93 c 9,-15 29,-18 43,-8 l 46,35 a 12,12 0 0 0 14,0 l 63,-48 c 8,-6 19,4 14,12 l -59,93 c -9,15 -29,18 -43,8 l -47,-35 a 12,12 0 0 0 -14,0 l -63,48 c -8,6 -19,-4 -14,-12 z" fill="#ffffff" />
</g>

<!-- 2. linkedIn -->
<g transform="translate(1000,0)">
<g fill="none" fill-rule="evenodd" transform="matrix(12.5,0,0,12.5,50,50)">
<path d="m 8,72 h 56 c 4,0 8,-3 8,-8 V 8 C 72,3 68,0 64,0 H 8 C 3,0 0,3 0,8 v 56 c 0,4 3,8 8,8 z" fill="black" />
<path d="M 62,62 H 51 V 43 c 0,-4 -1,-7 -5,-7 -4,0 -6,2 -6,7 V 62 H 28 V 27 h 10 v 4 c 0,0 3,-5 10,-5 C 56,26 62,30 62,40 Z M 16,22 C 12,22 10,19 10,16 10,12 12,10 16,10 c 3,0 6,2 6,6 0,3 -2,6 -6,6 z M 11,62 H 21 V 27 H 11 Z" fill="#ffffff" />
</g></g>

<!-- 3. vs-code -->
<g transform="translate(2000,0)">
<path d="M 370,589 147,743 50,700 V 300 L 147,256 368,410 719,100 950,181 V 817 L 720,900 Z m 342,54 V 356 l -210,144 z M 155,592 265,503 155,406 Z" fill="#0179cb" stroke-width="4" />
</g>

<!-- 4. inskape -->
<g transform="translate(3000,0)">
<g transform="matrix(6.9897692,0,0,7.0846446,52.73829,33.518265)">
<g style="opacity:0.7">
<path d="m 54.1,13 -41.2,42.2 c -15.6,15.6 10.1,14.3 19.4,20.2 4.3,2.8 -13.8,6.4 -10.1,10.1 3.6,3.7 21.7,7.1 25.3,10.7 3.6,3 -7.3,7 -3.7,11 3.5,3.7 11.9,0.2 13.4,8.6 1.1,6.2 15.4,3.1 21.8,-2.2 4,-3.4 -6.9,-3.4 -3.3,-7.1 9,-9 17,-4.1 20.3,-12 1.8,-4.5 -13.6,-7.7 -9.5,-10.6 9.8,-6.9 45.8,-10.4 29.2,-27 l -42.7,-43.7 c -5.3,-5 -14,-5 -18.9,0 z m 47.3,81.3 c 0,2.1 16.3,3.3 15.4,-0.5 -1.3,-6.4 -13.6,-5.9 -15.4,0.5 z M 31.9,105 c 3.7,3.2 9.3,-0.7 11.1,-5.2 -3.6,-4 -16.9,0.3 -11.1,5.2 z m 67.5,-6 c -4.6,4 0.8,8 5.3,5 1.2,-0.8 -0.1,-4 -5.3,-5 z" fill="black" transform="translate(3.7e-7,0.5)" />
<path d="m 54.1,14 -41.2,42.2 c -15.6,15.6 10.1,14.3 19.4,20.2 4.3,2.8 -13.8,6.4 -10.1,10.1 3.6,3.7 21.7,7.1 25.3,10.7 3.6,3.7 -7.3,7 -3.7,11 3.5,3.7 11.9,0.2 13.4,8.6 1.1,6.2 15.4,3.1 21.8,-2.2 4,-3.4 -6.9,-3.4 -3.3,-7.1 9,-9 17,-4.1 20.3,-12 1.8,-4.5 -13.6,-7.7 -9.5,-10.6 9.8,-6.9 45.8,-10.4 29.2,-27 l -42.7,-43.7 c -5.3,-5 -14,-5 -18.9,0 z m 47.3,81.3 c 0,2.1 16.3,3.3 15.4,-0.5 -1.3,-6.4 -13.6,-5.9 -15.4,0.5 z M 31.9,106.4 c 3.7,3.2 9.3,-0.7 11.1,-5.2 -3.6,-4 -16.9,0.3 -11.1,5.2 z m 67.5,-6 c -4.6,4 0.8,8 5.3,5 1.2,-0.8 -0.1,-4 -5.3,-5 z" style="opacity:0.5;fill:black;" transform="translate(3.7e-7,0.5)" />
</g>
<path d="M 54.1,12.5 12.9,54.7 C -2.7,70.3 23,69 32.3,74.9 36.6,77.7 18.5,81.3 22.2,85 c 3.6,3.7 21.7,7.1 25.3,10.7 3.6,3.7 -7.3,7.6 -3.7,11.3 3.5,3.7 11.9,0.2 13.4,8.6 1.1,6.2 15.4,3.1 21.8,-2.2 4,-3.4 -6.9,-3.4 -3.3,-7.1 9,-9.1 17,-4.1 20.3,-12.5 1.8,-4.5 -13.6,-7.7 -9.5,-10.6 9.8,-6.9 45.8,-10.4 29.2,-27 L 73,12.5 c -5.3,-5 -14,-5 -18.9,0 z m 47.3,81.3 c 0,2.1 16.3,3.3 15.4,-0.5 -1.3,-6.4 -13.6,-5.9 -15.4,0.5 z m -69.5,11.1 c 3.7,3.2 9.3,-0.7 11.1,-5.2 -3.6,-4.7 -16.9,0.3 -11.1,5.2 z m 67.5,-6.7 c -4.6,4.2 0.8,8.6 5.3,5.7 1.2,-0.8 -0.1,-4.7 -5.3,-5.7 z" fill="black" />
<path d="m 70.5,15.5 16.3,16.6 c 1.5,1.5 1.5,4.6 0.6,5.5 L 79.3,31 77.7,40.7 71,37.1 60.1,44 56.5,29.5 50.7,42.1 36.2,42 c -2.8,0 -2.4,-2.9 0.5,-5.8 5.7,-6.3 16.8,-17 20.3,-20.7 3.6,-3.7 9.9,-3.6 13.5,0 z" fill="white" />
<path d="m 238,199 a 8,2 0 1 1 -16,0 8,2 0 1 1 16,0 z" transform="matrix(0.52965,0,0,0.52965,-12.384318,-14.791044)" style="opacity:0.5;fill:white;" />
<path d="m 236,199 a 6,3 0 1 1 -13,0 6,3 0 1 1 13,0 z" transform="matrix(0.20425,-0.10356,0.23952,0.4724,5.7547955,30.286555)" style="opacity:0.3;fill:white;" />
<path d="m 237,199 a 7,2 0 1 1 -14,0 7,2 0 1 1 14,0 z" transform="matrix(0.27502,-0.13944,0.51588,1.01747,-65.353496,-69.300635)" style="opacity:0.6;fill:white;" />
<path d="m 238,199 a 8,2 0 1 1 -16,0 8,2 0 1 1 16,0 z" transform="matrix(0.46557,-0.10222,0.12385,0.3686,-95.518389,49.727432)" style="opacity:0.3;fill:white;" />
<path d="m 238,199 a 8,2 0 1 1 -16,0 8,2 0 1 1 16,0 z" transform="matrix(0.62687,-0.13763,0.26675,0.7939,-160.70561,-25.755035)" style="opacity:0.6;fill:white;" />
<path d="m 236.5,201 a 2.5,1 0 1 1 -5,0 2.5,1 0 1 1 5,0 z" transform="matrix(0.4883,0,0,0.4883,-6.3597463,-8.0094438)" style="opacity:0.6;fill:white;" />
</g></g>

<!-- 5. photoshop -->
<g transform="translate(4000,0)">
<g transform="scale(0.35082795,0.3599712)">
<path d="M 497.4,89 C 163.8,89 86.7,287.3 86.7,620.9 l 1.2,1622.9 c 0,334.8 104.5,446.4 438.1,446.4 h 1789 c 333.6,0 446.4,-111.6 446.4,-445.2 V 560.3 C 2761.4,225.5 2636.7,89 2303.1,89 Z" fill="black" />
<path d="M 0,510.5 V 2269.9 C 0,2551.2 216.1,2778 497.4,2778 h 1843.7 c 281.4,0 509.3,-226.8 509.3,-508.1 V 508.1 C 2849.2,226.8 2621.3,0 2339.9,0 H 497.4 C 216.1,0 0,226.8 0,508.1 Z M 2303.1,119.9 c 226.8,0 426.2,186.4 426.2,413.1 v 1689.4 c 0,226.8 -184,435.7 -410.8,435.7 H 530.7 C 303.9,2658.1 119.9,2465.8 119.9,2239 V 556.8 c 0,-225.6 184,-436.9 409.6,-436.9 0,0 1773.6,0 1773.6,0 z" fill="#00C8FF" />
<path d="m 1060.2,1709.5 c 0,4.7 2.4,7.1 7.1,7.1 h 95 c 4.7,0 7.1,-2.4 7.1,-7.1 v -254.1 c 16.6,0 24.9,1.2 49.9,1.2 144.8,0 263.6,-70 263.6,-231.5 0,-124.7 -77.2,-220.8 -254.1,-220.8 -62.9,0 -122.3,1.2 -162.6,3.6 -4.7,0 -5.9,3.6 -5.9,7.1 -0.1,0 -0.1,694.5 -0.1,694.5 z m 110.4,-603 c 11.9,-1.2 35.6,-2.4 61.7,-2.4 85.5,0 137.7,41.6 137.7,122.3 0,100.9 -71.2,127 -147.2,127 -24.9,0 -36.8,0 -52.2,-1.2 0,0 0,-245.7 0,-245.7 z m 686.1,198.2 c 5.9,2.4 9.5,-1.2 9.5,-5.9 v -87.9 c 0,-4.7 -1.2,-9.5 -5.9,-13.1 -21.4,-9.5 -62.9,-17.8 -117.5,-17.8 -111.6,0 -175.7,68.9 -175.7,150.8 0,73.6 38,117.5 128.2,161.5 64.1,33.2 79.5,53.4 79.5,77.2 0,28.5 -21.4,49.9 -71.2,49.9 -42.7,0 -93.8,-11.9 -134.2,-38 -4.7,-3.6 -7.1,-1.2 -7.1,4.7 v 93.8 c 0,4.7 1.2,8.3 4.7,10.7 27.3,15.4 80.7,27.3 136.5,27.3 105.7,0 184,-54.6 184,-156.7 0,-68.9 -32.1,-115.2 -131.8,-163.8 -67.7,-34.4 -79.5,-51 -79.5,-73.6 0,-21.4 16.6,-46.3 67.7,-46.3 39.2,-0.1 84.4,10.6 112.8,27.2 z" fill="#00C8FF" />
<path d="m 1424.6,2273.4 c -41.6,0 -81.9,-15.4 -114,-46.3 L 586.5,1503 c -62.9,-62.9 -62.9,-165 0,-226.8 L 1310.6,552 c 62.9,-62.9 165,-62.9 226.8,0 v 0 l 724.2,724.2 c 62.9,62.9 62.9,165 0,226.8 l -724.2,724.2 c -30.9,30.8 -71.2,46.2 -112.8,46.2 z m 0,-1733.2 c -32.1,0 -64.1,11.9 -89,36.8 l -724.2,724.2 c -48.7,48.7 -48.7,128.2 0,176.9 l 724.2,724.2 c 48.7,48.7 128.2,48.7 176.9,0 l 724.2,-724.2 c 48.7,-48.7 48.7,-128.2 0,-176.9 L 1512.5,577 c -23.8,-25 -55.8,-36.8 -87.9,-36.8 z" fill="#CAF1FE" />
</g></g>

<!-- 6. html5 -->
<g transform="translate(5000,0)">
<g stroke-width="3">
<path d="M 860,229 794,887 499,960 205,887 140,229 Z" fill="#e44d26"  />
<path d="M 500,904 738,845 794,282 H 500 Z" fill="#f16529" />
<path d="M 372,444 H 500 V 363 H 274 l 2,21 22,222 H 500 V 527 H 381 Z m 20,204 H 302 L 315,774 499,820 500,820 v -84 l 0,0 -100,-24 z" fill="#ebebeb" />
<path d="m 207,50 h 46 v 40 h 42 V 50 h 46 v 123 h -46 v -41 h -42 v 41 H 207 V 50 Z m 194,40 H 360 V 50 h 126 v 40 h -40 v 82 H 401 V 90 h 0 z M 507,50 h 48 L 584,93 613,50 h 48 v 123 h -45 v -61 l -31,43 h -1 l -31,-43 v 61 h -45 z m 177,0 h 46 v 82 h 64 v 40 H 684 V 50 Z" />
<path d="m 499,607 h 111 l -10,104 -100,24 v 84 l 185,-46 1,-13 21,-212 2,-21 H 499 Z m 0,-163 v 0 h 218 l 2,-18 4,-41 2,-21 h -226 v 80 z" fill="#ffffff" />
</g></g>

<!-- 7. css3 -->
<g transform="translate(6000,0)">
<path d="M 502,965 230,891 170,225 h 665 l -60,665 z" fill="#264de4" stroke-width="3" />
<path d="M 722,848 774,280 H 502 v 628 z" fill="#2965f1" stroke-width="3" />
<path d="m 308,526 7,81 H 502 v -81 z m -14,-165 7,81 H 502 V 361 Z M 502,738 l 0,0 -92,-24 -5,-65 h -83 l 11,128 170,46 0,0 z" fill="#ebebeb" stroke-width="3" />
<path d="m 326,45 h 100 v 41 h -58 v 41 h 58 v 41 H 326 Z m 120,0 h 100 v 35 h -58 v 7 h 58 V 170 H 447 v -37 h 58 V 125 H 447 V 45 Z m 120,0 h 100 v 35 h -58 v 7 h 58 V 170 H 568 v -37 h 58 V 125 H 568 V 45 Z" stroke-width="3" />
<path d="m 695,526 15,-165 h -208 v 81 h 117 l -7,83 H 502 v 81 h 102 l -9,105 -92,24 v 84 l 170,-46 1,-13 19,-214 z" fill="#ffffff" stroke-width="3" />
</g>

<!-- 8. javascript -->
<g transform="translate(7000,0)">
<path d="M 0,0 H 1000 V 1000 H 0 Z" fill="#f7df1e" stroke-width="4" />
<path d="m 263,835 76,-46 c 15,26 28,48 60,48 31,0 50,-12 50,-59 V 459 h 94 v 321 c 0,97 -57,141 -140,141 -75,0 -119,-39 -141,-86 m 332,-10 76,-44 c 20,33 46,57 92,57 39,0 64,-19 64,-46 0,-32 -25,-43 -68,-62 L 736,719 C 668,690 623,654 623,578 c 0,-70 53,-124 137,-124 60,0 103,21 133,75 l -73,47 c -16,-29 -33,-40 -60,-40 -27,0 -45,17 -45,40 0,28 17,39 57,57 l 23,10 c 80,34 125,69 125,148 0,84 -66,131 -156,131 -87,0 -143,-41 -171,-96" stroke-width="4" />
</g>

<!-- 9. Typescript -->
<g transform="translate(8000,0)">
<rect fill="#3178c6" height="900" rx="88" width="900" x="50" y="50" />
<path d="m 607,766 v 88 c 14,7 31,13 51,16 19,4 40,5 62,5 21,0 41,-2 60,-6 19,-4 36,-11 50,-20 14,-9 26,-21 34,-36 8,-15 12,-33 12,-55 0,-16 -2,-30 -7,-42 -5,-12 -12,-23 -21,-32 -9,-9 -20,-18 -32,-25 -13,-7 -27,-14 -42,-21 -11,-5 -22,-9 -31,-14 -9,-4 -17,-9 -23,-14 -6,-5 -11,-10 -15,-15 -3,-5 -5,-11 -5,-18 0,-6 1,-11 5,-16 3,-5 7,-9 13,-12 6,-3 13,-6 21,-8 8,-2 17,-3 27,-3 7,0 15,1 23,2 8,1 16,3 25,5 8,2 16,5 24,9 8,3 15,7 22,12 v -82 c -13,-5 -28,-9 -44,-11 -16,-2 -34,-4 -55,-4 -21,0 -41,2 -59,7 -19,4 -35,11 -49,21 -14,9 -25,22 -34,36 -8,15 -12,32 -12,53 0,26 8,49 23,67 15,18 38,34 69,47 12,5 23,10 34,15 10,5 19,10 27,15 8,5 14,11 18,17 4,6 7,13 7,21 0,6 -1,11 -4,16 -3,5 -7,9 -12,13 -6,4 -13,6 -21,8 -8,2 -18,3 -29,3 -19,0 -38,-3 -57,-10 -19,-7 -36,-17 -52,-30 z M 459,549 H 572 V 477 H 257 v 72 h 112 v 322 h 89 z" fill="#ffffff" />
</g>

<!-- 10. vue -->
<g transform="translate(9000,0)">
<path d="M 770,50 H 950 L 500,950 50,50 H 394 L 500,258 603,50 Z" fill="#41b883" stroke-width="4" />
<path d="M 50,50 500,950 950,50 H 770 L 500,589.99999 227,50 Z" fill="#41b883" stroke-width="4" />
<path d="M 227,50 500,592 770,50 H 603.5 L 500,258 394,50 Z" fill="#35495e" stroke-width="4" />
</g>

<!-- 11. php -->
<g transform="translate(10000,0)">
<g fill-rule="evenodd" transform="matrix(3.6,0,0,3.8,50,250)">
<ellipse fill="#8993be" cx="128" cy="66" rx="128" ry="66" />
<path d="M 36,106 50,35 H 81 c 14,1 21,8 19,20 0,21 -16,33 -31,32 H 56 l -3,18 z M 58,74 64,48 h 11 c 6,0 10,2 10,7 -1,15 -8,17 -16,18 h -10 z m 40,13 14,-71 h 16 l -3,18 h 16 c 14,1 19,8 17,16 l -6,36 h -17 l 6,-32 c 1,-4 1,-7 -5,-7 H 125 l -8,39 z m 56,18 14,-71 h 32 c 14,1 21,8 21,20 0,21 -16,33 -31,32 h -16 l -3,18 z m 24,-31 4,-26 h 11 c 6,0 10,2 10,8 -1,15 -8,17 -16,18 h -10 z" fill="#232531" />
</g></g>

<!-- 12. JSON -->
<g transform="translate(11000,0)">
<path d="M 50,300 C 50,162 162,50 300,50 H 700 C 838,50 950,162 950,300 V 700 C 950,838 838,950 700,950 H 300 C 162,950 50,838 50,700 Z" fill="#00b9e0" />
<path d="m 101,488 c 7,0 13,-2 16,-7 3,-4 5,-10 5,-16 v -36 c 0,-7 1,-14 2,-20 1,-6 4,-11 7,-15 3,-4 9,-7 16,-9 6,-2 15,-3 26,-3 h 1 v 23 c -4,0 -8,0 -12,1 -3,1 -6,2 -7,3 -2,1 -3,4 -4.5,6 -1,2 -1,6 -1,11 v 35 c 0,10 -1,18 -3,23 -2,5 -6,10 -13,14 6,3 10,8 13,14 2,6 3,13 3,23 v 36 c 0,4.5 0,8 1,11 1,2 2,5 4.5,6 2,2 4,3 7,3 3,0 7,1 12,1 v 24 c -11,0 -20,-1 -27,-3 -6,-2 -12,-5 -16,-9 -4,-4 -6,-9 -8,-15 -1,-5 -2,-12 -2.25,-20 v -37 c 0,-6 -1,-11 -5,-16 -3,-4 -9,-7 -16,-7 z" fill="#ffffff" />
<path d="m 285,517 c 0,8 -1,16 -2,23 -1,7 -5,13 -9,19 -4,5 -10,9 -18,13 -7,3 -17,4 -29,4 -11,0 -20,-1 -28,-4 -7,-3 -14,-6 -18,-10 l 11,-24 c 4,2 9,5 15,8 6,2 12,3 18,3 10,0 18,-2 23,-7 4,-5 7,-14 7,-27 V 401 h 31 z" fill="#ffffff" />
<path d="m 367,551 c 11,0 19,-2 25,-6 5,-4 8,-9 8,-16 0,-4 -1,-8 -3,-11 -1,-3 -4,-5 -7,-8 -3,-2 -7,-5 -12,-7 -5,-2 -10,-4 -16,-6 -6,-2 -12,-4 -17,-7 -5,-3 -10,-6 -15,-10 -4,-4 -8,-8 -10,-14 -2,-5 -4,-12 -4,-19 0,-16 5,-28 16,-37 11,-9 25,-13 44,-13 11,0 20,1 29,4 8,2 15,5 20,8 l -10,25 c -6,-3 -12,-5 -19,-7 -7,-2 -13,-2 -21,-2 -8,0 -15,2 -20,5 -5,3 -7,8 -7,15 0,4 1,7 2,10 2,3 4,5 7,7 3,2 6,4 10,6 4,2 8,3 13,5 8,3 15,6 22,9 6,3 12,6 16,11 4,4 8,9 10,15 2,6 3,12 3,21 0,16 -6,28 -17,36 -11,8 -27,13 -48,13 -7,0 -14,-1 -20,-1 -6,-1 -11,-2 -16,-3 -4,-1 -8,-3 -12,-4 -3,-1 -6,-3 -8,-4 l 9,-26 c 4,2 10,5 18,7 8,2 17,4 28,4 z" fill="#ffffff" />
<path d="m 486,488 c 0,9 1,18 3,26 2,8 6,14 10,20 4,5 10,10 16,12 6,3 13,4 21,4 8,0 15,-1 21,-4 6,-3 12,-7 16,-12 4,-5 8,-12 10,-20 2,-8 3,-16 3,-26 0,-9 -1,-18 -3,-26 -2,-8 -6,-14 -10,-20 -4,-5 -10,-10 -16,-13 -6,-3 -13,-4 -21,-4 -8,0 -15,1 -21,4 -6,3 -12,7 -16,13 -4,5 -8,12 -10,20 -2,8 -3,16 -3,26 z m 135,0 c 0,15 -2,28 -7,39 -4,11 -10,21 -18,28 -7,7 -16,13 -26,17 -10,4 -21,6 -32,6 -11,0 -22,-2 -32,-6 -10,-4 -19,-10 -27,-17 -7,-7 -13,-17 -18,-28 -4,-11 -7,-24 -7,-39 0,-15 2,-28 7,-39 4,-11 11,-21 18,-28 8,-8 17,-13 27,-17 10,-4 21,-6 32,-6 11,0 22,2 32,6 10,4 19,10 26,17 8,8 14,17 18,28 4,11 7,24 7,39 z" fill="#ffffff" />
<path d="M 773,575 C 767,565 761,555 754,544 747,533 740,522 732,511 725,500 717,489 709,479 702,468 694,459 687,451 v 124 h -31 v -173 h 26 c 30,37 14,15 21,25 8,9 15,19 23,30 8,10 15,21 22,31 7,10 14,20 19,29 V 401 h 31 v 173 z" fill="#ffffff" />
<path d="m 898,512 c -7,0 -13,2 -16,7 -3,4 -5,10 -5,16 v 37 c 0,7 0,14 -2,20 -1,6 -4,11 -8,15 -4,4 -9,7 -16,9 -6,2 -16,3 -27,3 v -24 c 9,0 16,-1 20,-4 3,-3 5,-8 5,-17 v -36 c 0,-9 1,-17 3,-23 2,-5 7,-10 13,-14 -6,-3 -10,-8 -13,-14 -2,-5 -3,-13 -3,-23 V 425 c 0,-4 0,-8 -1,-11 -1,-2 -2,-5 -4,-6 -2,-1 -4,-3 -7,-3 -3,0 -7,-1 -12,-1 v -23 h 1 c 10,0 19,1 26,3 6,2 12,5 15,9 3,3 6,9 7,15 1,6 2,12 2,20 v 36 c 0,6 1,12 5,16 3,4 9,7 16,7 z" fill="#ffffff" />
</g>

<!-- 13. node-js -->
<g transform="translate(12000,0)">
<linearGradient x1="0.68188006" y1="0.17487" x2="0.27823001" y2="0.89754999" id="b" gradientUnits="userSpaceOnUse">
<stop stop-color="#41873F" offset="0%" />
<stop stop-color="#418B3D" offset="32.88%" />
<stop stop-color="#419637" offset="63.52%" />
<stop stop-color="#3FA92D" offset="93.19%" />
<stop stop-color="#3FAE2A" offset="100%" />
</linearGradient>
<mask id="c" fill="#ffffff">
<path d="m 57.903,1.85 a 5.957,5.957 0 0 0 -5.894,0 L 3.352,29.933 c -1.85,1.04 -2.89,3.005 -2.89,5.085 v 56.286 c 0,2.08 1.156,4.045 2.89,5.085 l 48.657,28.085 a 5.957,5.957 0 0 0 5.894,0 l 48.658,-28.085 c 1.849,-1.04 2.89,-3.005 2.89,-5.085 V 35.019 c 0,-2.08 -1.157,-4.045 -2.89,-5.085 z" />
</mask>
<linearGradient x1="51.368862" y1="64.594605" x2="184.67395" y2="-19.864828" id="d" gradientTransform="scale(0.92602084,1.0798893)" gradientUnits="userSpaceOnUse">
<stop stop-color="#41873F" offset="13.76%" />
<stop stop-color="#54A044" offset="40.32%" />
<stop stop-color="#66B848" offset="71.36%" />
<stop stop-color="#6CC04A" offset="90.81%" />
</linearGradient>
<mask fill="#ffffff">
<path d="m 57.903,1.85 a 5.957,5.957 0 0 0 -5.894,0 L 3.352,29.933 c -1.85,1.04 -2.89,3.005 -2.89,5.085 v 56.286 c 0,2.08 1.156,4.045 2.89,5.085 l 48.657,28.085 a 5.957,5.957 0 0 0 5.894,0 l 48.658,-28.085 c 1.849,-1.04 2.89,-3.005 2.89,-5.085 V 35.019 c 0,-2.08 -1.157,-4.045 -2.89,-5.085 z" />
</mask>
<linearGradient x1="5.4630943" y1="1.3961854" x2="60.624519" y2="1.3961854" id="e" gradientTransform="scale(1.6318162,0.6128141)" gradientUnits="userSpaceOnUse">
<stop stop-color="#6CC04A" offset="9.192%" />
<stop stop-color="#66B848" offset="28.64%" />
<stop stop-color="#54A044" offset="59.68%" />
<stop stop-color="#41873F" offset="86.24%" />
</linearGradient>
<linearGradient x1="-1.4223322" y1="66.989659" x2="120.27905" y2="66.989659" id="f" gradientTransform="scale(0.92514783,1.0809083)" gradientUnits="userSpaceOnUse">
<stop stop-color="#6CC04A" offset="9.192%" />
<stop stop-color="#66B848" offset="28.64%" />
<stop stop-color="#54A044" offset="59.68%" />
<stop stop-color="#41873F" offset="86.24%" />
</linearGradient>
<linearGradient x1="117.94696" y1="68.391641" x2="169.5617" y2="68.391641" id="g" gradientTransform="scale(0.65492335,1.5268962)" gradientUnits="userSpaceOnUse">
<stop stop-color="#6CC04A" offset="9.192%" />
<stop stop-color="#66B848" offset="28.64%" />
<stop stop-color="#54A044" offset="59.68%" />
<stop stop-color="#41873F" offset="86.24%" />
</linearGradient>
<linearGradient x1="-1.0387961" y1="150.7515" x2="87.897068" y2="150.7515" id="h" gradientTransform="scale(1.2659747,0.78990523)" gradientUnits="userSpaceOnUse">
<stop stop-color="#6CC04A" offset="9.192%" />
<stop stop-color="#66B848" offset="28.64%" />
<stop stop-color="#54A044" offset="59.68%" />
<stop stop-color="#41873F" offset="86.24%" />
</linearGradient>
<linearGradient x1="100.85387" y1="37.182247" x2="46.003895" y2="216.51322" id="i" gradientTransform="scale(1.2659747,0.78990523)" gradientUnits="userSpaceOnUse">
<stop stop-color="#41873F" offset="0%" />
<stop stop-color="#418B3D" offset="32.88%" />
<stop stop-color="#419637" offset="63.52%" />
<stop stop-color="#3FA92D" offset="93.19%" />
<stop stop-color="#3FAE2A" offset="100%" />
</linearGradient>
<g fill="none" transform="matrix(1.760195,0,0,1.6623102,49.593395,240.00042)">
<path d="m 253.11,313.094 c -1.733,0 -3.351,-0.462 -4.854,-1.271 l -15.371,-9.13 c -2.312,-1.272 -1.156,-1.734 -0.462,-1.965 3.12,-1.04 3.698,-1.272 6.934,-3.12 0.347,-0.232 0.81,-0.116 1.156,0.115 l 11.789,7.05 c 0.462,0.231 1.04,0.231 1.386,0 l 46.115,-26.698 c 0.462,-0.231 0.694,-0.694 0.694,-1.271 v -53.28 c 0,-0.579 -0.232,-1.04 -0.694,-1.272 L 253.688,195.67 c -0.462,-0.232 -1.04,-0.232 -1.386,0 l -46.115,26.582 c -0.462,0.231 -0.694,0.809 -0.694,1.271 v 53.28 c 0,0.463 0.232,1.04 0.694,1.272 l 12.598,7.281 c 6.819,3.467 11.095,-0.578 11.095,-4.623 v -52.587 c 0,-0.693 0.578,-1.387 1.387,-1.387 h 5.894 c 0.694,0 1.387,0.578 1.387,1.387 v 52.587 c 0,9.13 -4.97,14.447 -13.638,14.447 -2.658,0 -4.738,0 -10.633,-2.89 l -12.135,-6.934 c -3.005,-1.733 -4.854,-4.97 -4.854,-8.437 v -53.28 c 0,-3.467 1.849,-6.704 4.854,-8.437 l 46.114,-26.698 c 2.89,-1.618 6.82,-1.618 9.709,0 l 46.114,26.698 c 3.005,1.733 4.855,4.97 4.855,8.437 v 53.28 c 0,3.467 -1.85,6.704 -4.855,8.437 l -46.114,26.698 c -1.503,0.694 -3.236,1.04 -4.854,1.04 z m 14.216,-36.637 c -20.225,0 -24.386,-9.246 -24.386,-17.105 0,-0.694 0.578,-1.387 1.387,-1.387 h 6.01 c 0.693,0 1.271,0.462 1.271,1.156 0.925,6.125 3.583,9.13 15.834,9.13 9.708,0 13.87,-2.196 13.87,-7.397 0,-3.005 -1.157,-5.2 -16.297,-6.703 -12.598,-1.272 -20.457,-4.045 -20.457,-14.1 0,-9.362 7.86,-14.91 21.035,-14.91 14.793,0 22.075,5.086 23,16.18 0,0.348 -0.116,0.694 -0.347,1.041 -0.232,0.231 -0.578,0.462 -0.925,0.462 h -6.01 c -0.578,0 -1.156,-0.462 -1.271,-1.04 -1.387,-6.356 -4.97,-8.437 -14.447,-8.437 -10.633,0 -11.905,3.699 -11.905,6.472 0,3.352 1.503,4.392 15.834,6.241 14.216,1.85 20.92,4.508 20.92,14.447 -0.116,10.171 -8.437,15.95 -23.116,15.95 z"
fill="#539e43" />
<path d="m 110.028,104.712 c 0,-2.08 -1.156,-4.046 -3.005,-5.086 l -49.004,-28.2 c -0.81,-0.463 -1.734,-0.694 -2.658,-0.81 h -0.463 c -0.924,0 -1.849,0.347 -2.658,0.81 l -49.004,28.2 c -1.85,1.04 -3.005,3.005 -3.005,5.086 l 0.116,75.817 c 0,1.04 0.578,2.08 1.502,2.543 0.925,0.578 2.08,0.578 2.89,0 l 29.125,-16.643 c 1.849,-1.04 3.005,-3.005 3.005,-5.085 v -35.482 c 0,-2.08 1.155,-4.045 3.005,-5.085 l 12.366,-7.166 c 0.925,-0.578 1.965,-0.81 3.005,-0.81 1.04,0 2.08,0.232 2.89,0.81 l 12.366,7.166 c 1.85,1.04 3.005,3.004 3.005,5.085 v 35.482 c 0,2.08 1.156,4.045 3.005,5.085 l 29.125,16.643 c 0.925,0.578 2.08,0.578 3.005,0 0.925,-0.463 1.503,-1.503 1.503,-2.543 z M 345.571,0.347 c -0.924,-0.463 -2.08,-0.463 -2.89,0 -0.924,0.578 -1.502,1.502 -1.502,2.542 v 75.125 c 0,0.693 -0.346,1.386 -1.04,1.849 -0.693,0.346 -1.387,0.346 -2.08,0 l -12.251,-7.05 a 5.957,5.957 0 0 0 -5.895,0 l -49.004,28.316 c -1.849,1.04 -3.005,3.005 -3.005,5.085 v 56.516 c 0,2.08 1.156,4.046 3.005,5.086 l 49.004,28.316 a 5.957,5.957 0 0 0 5.895,0 l 49.004,-28.316 c 1.849,-1.04 3.005,-3.005 3.005,-5.086 V 21.844 c 0,-2.196 -1.156,-4.16 -3.005,-5.201 L 345.572,0.347 Z m -4.507,143.776 c 0,0.578 -0.231,1.04 -0.694,1.271 l -16.758,9.708 a 1.714,1.714 0 0 1 -1.503,0 l -16.758,-9.708 c -0.463,-0.231 -0.694,-0.809 -0.694,-1.271 v -19.417 c 0,-0.578 0.231,-1.04 0.694,-1.271 l 16.758,-9.709 a 1.714,1.714 0 0 1 1.503,0 l 16.758,9.709 c 0.463,0.23 0.694,0.809 0.694,1.271 z m 167.584,-19.879 c 1.85,-1.04 2.89,-3.005 2.89,-5.086 v -13.753 c 0,-2.08 -1.156,-4.045 -2.89,-5.085 l -48.657,-28.2 a 5.957,5.957 0 0 0 -5.894,0 l -49.004,28.315 c -1.85,1.04 -3.005,3.005 -3.005,5.086 v 56.516 c 0,2.08 1.155,4.045 3.005,5.085 l 48.657,27.738 c 1.85,1.04 4.045,1.04 5.779,0 L 489,178.45 c 0.925,-0.463 1.503,-1.503 1.503,-2.543 0,-1.04 -0.578,-2.08 -1.503,-2.543 l -49.235,-28.316 c -0.924,-0.577 -1.502,-1.502 -1.502,-2.542 v -17.683 c 0,-1.04 0.578,-2.08 1.502,-2.543 l 15.372,-8.784 a 2.821,2.821 0 0 1 3.005,0 l 15.371,8.784 c 0.925,0.578 1.503,1.502 1.503,2.543 v 13.869 c 0,1.04 0.578,2.08 1.502,2.542 0.925,0.578 2.08,0.578 3.005,0 z"
fill="#333333" />
<path d="m 456.293,121.586 a 1.05,1.05 0 0 1 1.155,0 l 9.362,5.432 c 0.347,0.23 0.578,0.577 0.578,1.04 v 10.864 c 0,0.462 -0.231,0.809 -0.578,1.04 l -9.362,5.432 a 1.05,1.05 0 0 1 -1.155,0 l -9.362,-5.432 c -0.347,-0.231 -0.578,-0.578 -0.578,-1.04 v -10.864 c 0,-0.463 0.231,-0.81 0.578,-1.04 z" fill="#539e43" />
<g transform="translate(134.068,70.501)">
<mask id="mask1838" fill="#ffffff">
<path id="use1836" d="m 57.903,1.85 a 5.957,5.957 0 0 0 -5.894,0 L 3.352,29.933 c -1.85,1.04 -2.89,3.005 -2.89,5.085 v 56.286 c 0,2.08 1.156,4.045 2.89,5.085 l 48.657,28.085 a 5.957,5.957 0 0 0 5.894,0 l 48.658,-28.085 c 1.849,-1.04 2.89,-3.005 2.89,-5.085 V 35.019 c 0,-2.08 -1.157,-4.045 -2.89,-5.085 z" />
</mask>
<path id="use1683"
d="m 57.903,1.85 a 5.957,5.957 0 0 0 -5.894,0 L 3.352,29.933 c -1.85,1.04 -2.89,3.005 -2.89,5.085 v 56.286 c 0,2.08 1.156,4.045 2.89,5.085 l 48.657,28.085 a 5.957,5.957 0 0 0 5.894,0 l 48.658,-28.085 c 1.849,-1.04 2.89,-3.005 2.89,-5.085 V 35.019 c 0,-2.08 -1.157,-4.045 -2.89,-5.085 z" style="fill:url(#b)" />
<g mask="url(#c)">
<path d="M 51.893,1.85 3.121,29.933 C 1.27,30.974 0,32.94 0,35.02 v 56.286 c 0,1.387 0.578,2.658 1.502,3.698 L 56.285,1.156 C 54.898,0.925 53.28,1.04 51.893,1.849 Z m 4.739,123.203 c 0.462,-0.116 0.925,-0.347 1.387,-0.578 L 106.792,96.39 c 1.85,-1.04 3.005,-3.005 3.005,-5.085 V 35.019 c 0,-1.502 -0.694,-3.005 -1.734,-4.045 l -51.43,94.079 z" />
<path d="M 106.676,29.934 57.788,1.85 A 8.025,8.025 0 0 0 56.285,1.272 L 1.502,95.12 a 6.082,6.082 0 0 0 1.619,1.387 l 48.888,28.085 c 1.387,0.809 3.005,1.04 4.507,0.577 l 51.432,-94.078 c -0.347,-0.462 -0.81,-0.81 -1.272,-1.156 z" fill="url(#d)" /></g>
<g mask="url(#c)" id="g1703">
<path d="M 109.797,91.305 V 35.019 c 0,-2.08 -1.271,-4.045 -3.12,-5.085 L 57.786,1.85 A 5.106,5.106 0 0 0 55.938,1.157 l 53.511,91.42 c 0.231,-0.347 0.347,-0.809 0.347,-1.271 z M 3.12,29.934 C 1.272,30.974 0,32.94 0,35.02 v 56.286 c 0,2.08 1.387,4.045 3.12,5.085 l 48.889,28.085 c 1.156,0.693 2.427,0.925 3.814,0.693 L 3.467,29.818 3.121,29.934 Z" />
<path fill="url(#e)" fill-rule="evenodd" d="m 50.391,0.809 -0.693,0.347 h 0.924 z" transform="translate(0,-9.246)" />
<path d="m 106.792,105.636 c 1.387,-0.809 2.427,-2.196 2.89,-3.698 L 56.053,10.402 c -1.387,-0.231 -2.89,-0.116 -4.16,0.693 L 3.351,39.065 55.706,134.53 a 8.057,8.057 0 0 0 2.196,-0.693 l 48.889,-28.2 z" fill="url(#f)" fill-rule="evenodd" transform="translate(0,-9.246)" />
<path fill="url(#g)" fill-rule="evenodd" d="m 111.3,104.712 -0.347,-0.578 v 0.809 l 0.346,-0.231 z" transform="translate(0,-9.246)" />
<path d="m 106.792,105.636 -48.773,28.085 a 6.973,6.973 0 0 1 -2.196,0.693 l 0.925,1.734 54.089,-31.32 v -0.694 l -1.387,-2.312 c -0.231,1.618 -1.271,3.005 -2.658,3.814 z" fill="url(#h)" fill-rule="evenodd" transform="translate(0,-9.246)" />
<path d="m 106.792,105.636 -48.773,28.085 a 6.973,6.973 0 0 1 -2.196,0.693 l 0.925,1.734 54.089,-31.32 v -0.694 l -1.387,-2.312 c -0.231,1.618 -1.271,3.005 -2.658,3.814 z" fill="url(#i)" fill-rule="evenodd" transform="translate(0,-9.246)" />
</g></g></g></g>

<!-- 14. SVG -->
<g transform="translate(13000,0)">
<path id="base" fill="#000000" d="m 50,500 h 900 v 328 c 0,77 -57,136 -132,136 H 182 C 107,965 50,906 50,829 Z" stroke-width="3" />
<g stroke-width="38" stroke="#000000" transform="matrix(3.180212,0,0,3.2831949,22.968198,7.9309679)">
<g id="svgstar" transform="translate(150,150)">
<path id="svgbar" fill="#ffb13b" d="m -84.2,-15.9 a 22.4,22.4 0 1 0 0,31.7 H 84.1 a 22.4,22.4 0 1 0 0,-31.7 z" />
<use xlink:href="#svgbar" transform="rotate(45)" x="0" y="0" width="100%" height="100%" />
<use xlink:href="#svgbar" transform="rotate(90)" x="0" y="0" width="100%" height="100%" />
<use xlink:href="#svgbar" transform="rotate(135)" x="0" y="0" width="100%" height="100%" />
</g>
</g>
<use xlink:href="#svgstar" x="0" y="0" width="100%" height="100%" transform="matrix(3.180212,0,0,3.2831949,22.968198,7.9309679)" />
<use xlink:href="#base" opacity="0.85" x="0" y="0" width="100%" height="100%" />
<g fill="#ffffff" transform="matrix(6.360424,0,0,6.5663897,150.17668,526.67578)">
<path d="M 5.5,31.3 C 2.2,28 0.1,23.4 0.1,18.4 0.1,8.2 8.3,0 18.4,0 c 10.1,0 18.3,8.2 18.3,18.3 h -10.7 c 0,-4.2 -3.4,-7.6 -7.6,-7.6 -4.2,0 -7.6,3.4 -7.6,7.6 0,2 0.9,4 2.2,5.4 h 0 c 1.4,1.4 2.5,1.8 5.4,2.2 v 0 c 5,0.5 9.6,2 13,5.4 v 0 c 3.3,3.3 5.4,7.9 5.4,13 0,10.1 -8.2,18.3 -18.3,18.3 C 8.3,62.6 0.1,54.4 0.1,44.3 H 10.9 c 0,4.2 3.4,7.6 7.6,7.6 4.2,0 7.6,-3.4 7.6,-7.6 0,-2.1 -0.9,-4 -2.2,-5.4 H 23.8 C 22.4,37.5 20.5,37.1 18.4,36.7 V 36.7 C 13.5,35.9 8.8,34.6 5.5,31.3 Z" />
<path d="M 73.5,0 60.5,62.6 H 49.7 L 36.8,0 h 10.7 l 7.6,36.7 7.6,-36.7 z" />
<path d="m 91.8,26 h 18.3 v 18.3 h 0 c 0,10.1 -8.2,18.3 -18.3,18.3 -10.1,0 -18.3,-8.2 -18.3,-18.3 v 0 -25.9 h 0 c 0,-10.1 8.2,-18.3 18.3,-18.3 10.1,0 18.3,8.2 18.3,18.3 H 99.4 c 0,-4.2 -3.4,-7.6 -7.6,-7.6 -4.2,0 -7.6,3.4 -7.6,7.6 v 25.9 0 c 0,4.2 3.4,7.6 7.6,7.6 4.2,0 7.6,-3.4 7.6,-7.6 v 0 -7.6 h -7.6 z" />
</g></g>

<!-- 15. git -->
<g transform="translate(14000,0)">
<path d="M 942,453 536,47 c -23,-23 -61,-23 -84,0 l -84,84 107,107 c 25,-8 53,-3 73,17 20,20 25,48 17,73 L 667,432 c 25,-8 54,-3 73,17 28,28 28,73 0,100 -28,28 -73,28 -101,0 C 619,529 614,498 625,473 l -96,-96 0,253 a 72,72 0 0 1 19,13 c 28,28 28,73 0,101 -28,28 -73,28 -101,0 -28,-28 -28,-73 0,-101 a 71,71 0 0 1 23,-15 V 372 A 70,70 0 0 1 447,357 C 426,335 420,304 431,279 L 326,173 47,451 c -23,23 -23,61 0,85 L 453,942 c 23,23 61,23 85,0 l 404,-404 c 23,-23 23,-61 0,-85" fill="#de4c36" stroke-width="4" />
</g>


<!-- 16. git HuB -->
<g transform="translate(15000,0)">
<g fill="#161614" transform="matrix(3.5,0,0,3.5,50,50)">
<path
d="M 127,0 C 57,0 0,57 0,127 c 0,56 36,104 87,121 6,1 9,-3 9,-6 0,-3 0,-13 0,-24 -35,8 -43,-15 -43,-15 -6,-15 -14,-17 -14,-19 -11,-8 1,-8 1,-8 13,1 19,13 19,13 11,19 30,14 37,10 1,-8 4,-14 8,-17 -28,-3 -58,-14 -58,-63 0,-14 5,-25 13,-34 -1,-3 -5,-16 1,-34 0,0 11,-3 35,13 10,-3 21,-4 32,-4 11,0 22,1 32,4 24,-16 35,-13 35,-13 7,17 2,30 1,34 8,9 13,20 13,34 0,49 -30,60 -58,63 4,4 8,12 8,23 0,17 0,31 0,35 0,3 2,7 8,6 50,-17 87,-64 87,-121 C 255,57 198,0 127,0" />
<path
d="m 48,182 c 0,1 -1,1 -2,0 -1,-0.5 -1.4,-1.3 -1.2,-2 0.3,-0.7 1.2,-0.8 2,-0.4 0.9,0.4 1.5,1.3 1.1,2 m 6.3,5.6 c -0.6,0.6 -1.8,0.3 -2.6,-0.6 -0.8,-0.9 -1,-2 -0.4,-2.7 0.6,-0.6 1.8,-0.3 2.6,0.6 0.8,1 1,2 0.4,2.7 m 4.3,7.2 c -0.8,0.5 -2,0 -2.8,-1.1 -0.8,-1.1 -0.8,-2.5 0,-3 0.8,-0.5 2,0 2.9,1 0.8,1.2 0.8,2.5 0,3 m 7.3,8.3 c -0.7,0.8 -2.2,0.6 -3.3,-0.5 -1,-1 -1.4,-2.5 -0.7,-3.3 0.7,-0.8 2.2,-0.6 3.3,0.5 1.1,1 1.4,2.5 0.7,3.2 m 9.4,2.8 c -0.3,1 -1.7,1.5 -3.2,1 -1.5,-0.5 -2.4,-1.6 -2,-2.6 0.3,-1 1.7,-1.5 3.2,-1 1.4,0.4 2.4,1.6 2.1,2.6 m 10.7,1.2 c 0,1 -1.2,2 -2.7,2 -1.5,0 -2.8,-0.8 -2.8,-1.9 0,-1 1.2,-2 2.7,-2 1.5,0 2.8,0.8 2.8,1.9 m 10.5,-0.4 c 0.2,1 -1,2 -2.4,2.4 -1.5,0.3 -2.9,-0.4 -3,-1.4 -0.2,-1 1,-2.1 2.4,-2.4 1.5,-0.3 2.9,0 3,1.4" />
</g></g>

<!-- 17. chatGPT -->
<g transform="translate(16000,0)">
<path d="M 890,418 C 911,357 904,290 871,234 821,148 721,104 623,125 580,77 517,49 452,50 352,49 263,113 233,207 c -64,13 -119,52 -152,109 -50,85 -38,192 28,266 -20,61 -13,128 19,184 50,85 150,129 247,109 43,48 106,76 171,75 100,0 188,-63 219,-157 C 831,780 886,740 919,684 969,599 957,491 890,418 Z M 548,891 c -40,0 -79,-14 -109,-39 1,-1 4,-2 5,-3 L 625,745 c 9,-5 15,-15 15,-25 V 467 l 76,43 c 1,0 1,1 1,2 V 722 C 718,815 642,891 548,891 Z M 180,736 c -20,-34 -27,-74 -20,-113 1,1 3,2 5,3 l 181,103 c 9,5 20,5 30,0 L 599,604 v 87 c 0,1 0,2 -1,2 L 414,798 C 332,844 228,817 180,736 Z M 133,345 c 20,-34 51,-60 89,-74 0,1 0,4 0,6 v 207 c 0,10 5,20 15,25 l 222,126 -77,44 c -1,0 -2,0 -2,0 L 195,575 C 113,529 86,426 133,345 Z m 630,145 -222,-126 77,-44 c 1,0 2,0 2,0 l 183,104 c 82,46 110,150 62,230 -20,34 -51,60 -89,74 V 515 c 0,-10 -5,-20 -15,-25 z m 76,-113 c -1,-1 -4,-2 -5,-3 L 653,270 c -9,-5 -20,-5 -30,0 L 401,396 v -87 c 0,-1 0,-2 1,-2 L 586,202 c 82,-46 186,-19 233,62 20,34 27,74 20,113 z M 359,532 283,489 c -1,0 -1,-1 -1,-2 V 277 c 0,-93 76,-168 171,-168 40,0 78,14 109,39 -1,1 -4,2 -5,3 l -181,103 c -9,5 -15,15 -15,25 l 0,252 z m 42,-89 99,-56 99,56 v 112 l -99,56 -99,-56 z" stroke-width="3" />
</g>
</svg>