<?xml version="1.0" encoding="UTF-8" standalone="no"?>
<svg width="400" height="400" viewBox="0 0 400 400" version="1.1" xmlns="http://www.w3.org/2000/svg" xmlns:svg="http://www.w3.org/2000/svg" stroke-width="10" stroke-linejoin="round" stroke="rgb(110,87,168)" fill="none">
<defs>
<filter id="fil" style="color-interpolation-filters:sRGB;" x="-0.024" y="-0.24" width="1.04" height="1.4">
<feGaussianBlur result="result1" in="SourceAlpha" stdDeviation="2.8" />
<feSpecularLighting result="result0" specularExponent="200" specularConstant="0.5" surfaceScale="1.5">
<feDistantLight azimuth="225" elevation="24" />
</feSpecularLighting>
<feComposite result="result6" operator="in" in2="SourceAlpha" />
<feMorphology radius="5" operator="dilate" />
<feGaussianBlur result="result11" stdDeviation="6" />
<feDiffuseLighting surfaceScale="2" result="result3" diffuseConstant="2" in="result1">
<feDistantLight elevation="25" azimuth="225" />
</feDiffuseLighting>
<feBlend result="result7" mode="multiply" in="result3" in2="SourceGraphic" />
<feComposite in="result7" operator="in" in2="SourceAlpha" result="result91" />
<feBlend result="result9" mode="lighten" in="result6" in2="result91" />
<feComposite in="result11" in2="result9" />
</filter>
</defs>
<g stroke="black" fill="black" stroke-width="1" style="filter:url(#fil)">
<path d="M 94,91 C 55,84 46,65 37,27 27,76 23,101 57,143 Z" />
<path d="m 303,91 c 39,-7 48,-26 57,-64 10,49 14,74 -20,116 z" />
</g>
<circle cx="200" cy="200" r="150" />
<path d="m 200,50 c -109,89 -128,186 0,297" />
<path d="m 200,50 c 109,89 128,186 0,297" />
<path d="M 200,50 V 348" />
<path d="m 89,100 c 60,13 106,36 222,0" />
<path d="M 89,298 C 148,286 195,262 311,297" />
<path d="M 346,192 54,193" />
<g stroke="black" fill="black" stroke-width="1">
<circle cx="125" cy="195" r="25" />
<circle cx="275" cy="195" r="25" />
</g>
</svg>