<?xml version="1.0" encoding="UTF-8" standalone="no"?>
<svg width="6075" height="85" viewBox="0 0 6075 85" version="1.1" xmlns="http://www.w3.org/2000/svg" xmlns:svg="http://www.w3.org/2000/svg" stroke="transparent">

<path fill="white" d="M0,0L144,10.7C288,21,576,43,864,53.3C1152,64,1215,85,1215,85H0Z"/>

<g  transform="translate(1215,0)">
<path fill="white" d="M0,85L144,63.7C288,43,576,21,864,10.3C1152,0,1215,0,1215,0H0Z"/>
</g>

<g  transform="translate(2430,0)">
<path fill="rgb(168, 151, 87)" d="M0,85L144,74.3C288,64,576,42,864,31.7C1152,21,1215,10,1215,0H0Z"/>
</g>

<g  transform="translate(3645,0)">
<path fill="white" d="M0,85L144,75C288,65,576,55,864,50C1152,45,1215,35,1215,0H0Z"/>
</g>

<g  transform="translate(4865,0)">
<path fill="rgb(168, 151, 87)" d="M0,0L150,20C300,40,600,60,900,45C1050,35,1200,25,1215,10V0H0Z"/>
</g>

</svg>