<?xml version="1.0" encoding="UTF-8" standalone="no"?>
<svg width="8075" height="85" viewBox="0 0 8075 85" version="1.1" xmlns="http://www.w3.org/2000/svg" xmlns:svg="http://www.w3.org/2000/svg" stroke="transparent">


<path fill="white" d="M0,0L192,10.7C384,21,768,43,1152,53.3C1536,64,1615,85,1615,85H0Z"/>


<g  transform="translate(1615,0)">
<path fill="white" d="M0,85L192,63.7C384,43,768,21,1152,10.3C1536,0,1615,0,1615,0H0Z"/>
</g>

<g  transform="translate(3230,0)">
<path fill="rgb(168,151,87)" d="M0,85L192,74.3C384,64,768,42,1152,31.7C1536,21,1615,10,1615,0H0Z"/>
</g>

<g  transform="translate(4845,0)">
<path fill="white" d="M0,85L192,75C384,65,768,55,1152,50C1536,45,1615,35,1615,0H0Z"/>
</g>

<g  transform="translate(6465,0)">
<path fill="rgb(168,151,87)" d="M0,0L200,20C400,40,800,60,1200,45C1400,35,1600,25,1615,10V0H0Z"/>
</g>
</svg>