<?xml version="1.0" encoding="UTF-8" standalone="no"?>
<svg width="4075" height="85" viewBox="0 0 4075 85" version="1.1" xmlns="http://www.w3.org/2000/svg" xmlns:svg="http://www.w3.org/2000/svg" stroke="transparent">

<!-- 1. PŘECHOD -->
<path fill="white" d="M0,0L96,10.7C192,21,384,43,576,53.3C768,64,815,85,815,85H0Z"/>

<!-- 2. PŘECHOD -->
<g transform="translate(815,0)">
<path fill="white" d="M0,85L48,63.7C96,43,192,21,288,10.3C384,0,415,0,415,0H0Z"/>
</g>

<!-- 3. PŘECHOD -->
<g transform="translate(1630,0)">
<path fill="rgb(168, 151, 87)" d="M0,85L96,74.3C192,64,384,42,576,31.7C768,21,815,10,815,0H0Z"/>
</g>

<!-- 4. PŘECHOD -->
<g transform="translate(2445,0)">
<path fill="white" d="M0,85L96,75C192,65,384,55,576,50C768,45,815,35,815,0H0Z"/>
</g>

<!-- 5. PŘECHOD -->
<g transform="translate(3260,0)">
<path fill="rgb(168,151,87)" d="M0,0L100,20C200,40,400,60,600,45C700,35,800,25,815,10V0H0Z"/>
</g>
</svg>